<?xml version="1.0" encoding="UTF-8"?>
<svg width="260px" height="260px" viewBox="0 0 260 260" version="1.1" xmlns="http://www.w3.org/2000/svg" xmlns:xlink="http://www.w3.org/1999/xlink">
    <!-- Generator: Sketch 55.2 (78181) - https://sketchapp.com -->
    <title>pic_share with friends</title>
    <desc>Created with Sketch.</desc>
    <defs>
        <linearGradient x1="100%" y1="100%" x2="-70.3455529%" y2="-80.3245192%" id="linearGradient-1">
            <stop stop-color="#2BFF89" offset="0%"></stop>
            <stop stop-color="#00E4FF" offset="100%"></stop>
        </linearGradient>
    </defs>
    <g id="pic_share-with-friends" stroke="none" stroke-width="1" fill="none" fill-rule="evenodd">
        <g id="share-with-friends">
            <circle id="椭圆形" fill="url(#linearGradient-1)" cx="130" cy="130" r="130"></circle>
            <g id="编组-2" transform="translate(72.000000, 80.000000)">
                <path d="M55.9008789,26.8495582 L55.9008789,74.179346 C51.2184425,73.6042624 43.630711,73.8237521 33.1376842,74.8378151 C24.1178983,75.7095017 14.9346187,80.3064481 5.58784557,88.6286542 L5.58784424,88.6286527 C4.25498453,89.8154081 2.21243293,89.6969672 1.02567755,88.3641074 C0.55586317,87.8364531 0.271925511,87.1693648 0.217335984,86.4649753 C-1.1125938,69.3043819 3.66109028,55.3618269 14.5383882,44.6373103 C26.7659956,32.5814504 40.5534925,26.6521998 55.9008789,26.8495582 Z" id="路径-20" fill="#DFFFF4"></path>
                <path d="M63.3386015,6.59720161 L108.896651,43.4903504 C112.363912,46.2981564 112.898505,51.3851029 110.090699,54.8523635 C109.73063,55.297001 109.324342,55.7021281 108.878677,56.0609248 L63.3274767,92.7333377 C61.1765088,94.4650414 58.0289814,94.1251606 56.2972777,91.9741927 C55.5819645,91.0856945 55.1919497,89.9793242 55.1919497,88.8386656 L55.1919497,10.4828911 C55.1919497,7.7214673 57.4305259,5.48289105 60.1919497,5.48289105 C61.3375145,5.48289105 62.4483396,5.87626287 63.3386015,6.59720161 Z" id="路径-19" fill="#F9FFFD"></path>
            </g>
        </g>
    </g>
</svg>