<?xml version="1.0" encoding="UTF-8"?>
<svg width="260px" height="260px" viewBox="0 0 260 260" version="1.1" xmlns="http://www.w3.org/2000/svg" xmlns:xlink="http://www.w3.org/1999/xlink">
    <!-- Generator: Sketch 55.2 (78181) - https://sketchapp.com -->
    <title>pic_download fast</title>
    <desc>Created with Sketch.</desc>
    <defs>
        <linearGradient x1="10.4437934%" y1="10.1291233%" x2="89.3930288%" y2="93.1370192%" id="linearGradient-1">
            <stop stop-color="#8470FF" offset="0%"></stop>
            <stop stop-color="#6B8DFF" offset="100%"></stop>
        </linearGradient>
    </defs>
    <g id="pic_download-fast" stroke="none" stroke-width="1" fill="none" fill-rule="evenodd">
        <g id="download-fast">
            <circle id="椭圆形" fill="url(#linearGradient-1)" cx="130" cy="130" r="130"></circle>
            <g id="download-free" transform="translate(130.000000, 130.000000) rotate(45.000000) translate(-130.000000, -130.000000) translate(87.000000, 70.000000)">
                <path d="M27,98.4734744 C29.209139,98.4734744 31,100.264335 31,102.473474 L31,115.473474 C31,117.682613 29.209139,119.473474 27,119.473474 C24.790861,119.473474 23,117.682613 23,115.473474 L23,102.473474 C23,100.264335 24.790861,98.4734744 27,98.4734744 Z M59,98.4734744 C61.209139,98.4734744 63,100.264335 63,102.473474 L63,115.473474 C63,117.682613 61.209139,119.473474 59,119.473474 C56.790861,119.473474 55,117.682613 55,115.473474 L55,102.473474 C55,100.264335 56.790861,98.4734744 59,98.4734744 Z M43,98.4734744 C45.209139,98.4734744 47,100.264335 47,102.473474 L47,110.473474 C47,112.682613 45.209139,114.473474 43,114.473474 C40.790861,114.473474 39,112.682613 39,110.473474 L39,102.473474 C39,100.264335 40.790861,98.4734744 43,98.4734744 Z" id="形状结合" fill="#D2D7FF"></path>
                <path d="M74,65.9358752 C75.953293,66.8544525 77.8320365,67.8292251 79.6362305,68.8601931 C80.462537,69.3323683 81.2905539,69.8554526 82.120281,70.4294461 C84.5499821,72.110279 86.0000042,74.876558 86,77.8309863 L86,84.4734744 C86,88.8917524 82.418278,92.4734744 78,92.4734744 L8,92.4734744 C3.581722,92.4734744 5.41083001e-16,88.8917524 0,84.4734744 L0,78.1065186 C-3.63995771e-16,75.1342676 1.46745935,72.3536831 3.92124986,70.6764269 C4.90869731,70.0014686 5.83224553,69.3960573 6.69189453,68.8601931 C8.32396988,67.8428351 10.0933384,66.8721095 12,65.9480162 L12,42.4734744 C12,25.2366243 21.6989112,11.2457807 41.0967335,0.500943777 C42.2840548,-0.156736969 43.7238818,-0.167446675 44.9208582,0.472493481 C64.3069527,10.8370117 74,24.8373386 74,42.4734744 L74,65.9358752 Z M43,54.4734744 C49.627417,54.4734744 55,49.1008913 55,42.4734744 C55,35.8460574 49.627417,30.4734744 43,30.4734744 C36.372583,30.4734744 31,35.8460574 31,42.4734744 C31,49.1008913 36.372583,54.4734744 43,54.4734744 Z" id="形状结合" fill="#EDEFFF"></path>
            </g>
        </g>
    </g>
</svg>