<?xml version="1.0" encoding="UTF-8"?>
<svg width="260px" height="260px" viewBox="0 0 260 260" version="1.1" xmlns="http://www.w3.org/2000/svg" xmlns:xlink="http://www.w3.org/1999/xlink">
    <!-- Generator: Sketch 55.2 (78181) - https://sketchapp.com -->
    <title>pic_popular status</title>
    <desc>Created with Sketch.</desc>
    <defs>
        <linearGradient x1="1.87608507%" y1="0%" x2="96.1349826%" y2="100%" id="linearGradient-1">
            <stop stop-color="#47C7FF" offset="0%"></stop>
            <stop stop-color="#36E1FF" offset="100%"></stop>
        </linearGradient>
        <path d="M103.983376,68.5795754 C103.617173,95.9339414 80.4809518,118 51.9938922,118 C23.2784584,118 0,95.5787264 0,67.9206838 C0,65.2479018 0.217389427,62.6240242 0.636067119,60.0645591 L0.638236192,60.2775841 C2.62950249,48.216993 10.8116043,37.9840341 25.1845415,29.5787074 C40.3490036,20.7104952 47.985395,10.850926 48.0937156,-1.42108547e-14 C58.1679553,3.33902862 66.021411,9.23398524 71.6540826,17.6848698 C84.1303355,36.403407 77.9914729,56.0268463 77.9914729,56.0268463 C77.9914729,56.0268463 84.75,52.6083333 87,42.0375 C87.857427,38.009181 88.357427,33.8562502 88.5,29.5787074 C98.0669453,35.8386219 103.22954,48.4106169 103.987784,67.2946924 C104.005428,67.7341158 104.003959,68.1624101 103.983376,68.5795754 Z M63.9996414,87.3395742 L64,87.3395639 C64,87.321218 63.999976,87.302881 63.999928,87.284553 C63.999976,87.2696665 64,87.2547739 64,87.2398754 C64,87.0932321 63.9976737,86.9471666 63.9930581,86.8017184 C63.890123,82.8332549 62.6424369,79.2908337 60.25,76.1744548 C57.75,72.9179647 55,70.1931464 52,68 C49,70.1931464 46.25,72.9179647 43.75,76.1744548 C41.3575631,79.2908337 40.109877,82.8332549 40.0069419,86.8017184 C40.0023263,86.9471666 40,87.0932321 40,87.2398754 C40,87.2547739 40.000024,87.2696665 40.000072,87.284553 C40.000024,87.302881 40,87.321218 40.0003586,87.3395728 C40.0507443,94.3408993 45.4038639,100 52,100 C58.5961357,100 63.949255,94.3409 63.9996414,87.3395742 Z" id="path-2"></path>
    </defs>
    <g id="pic_popular-status" stroke="none" stroke-width="1" fill="none" fill-rule="evenodd">
        <g id="popular-status">
            <circle id="椭圆形" fill="url(#linearGradient-1)" cx="130" cy="130" r="130"></circle>
            <g id="编组-4" transform="translate(78.000000, 71.000000)">
                <mask id="mask-3" fill="white">
                    <use xlink:href="#path-2"></use>
                </mask>
                <use id="形状结合" fill="#F3FCFF" xlink:href="#path-2"></use>
                <path d="M88.0645161,25.9178571 C88.0645161,30.6577764 108.193548,108.728571 22.6451613,110.414286 C-62.9032258,112.1 130.003276,134.857143 136.291961,124.321429 C139.521346,118.911095 129.072255,69.5763568 115.741935,46.7785714 C103.113703,25.1815093 88.0645161,21.1779379 88.0645161,25.9178571 Z" id="Path-8" fill="#D3F4FF" mask="url(#mask-3)"></path>
            </g>
            <path d="M173.5,90 C171.014719,90 169,87.9852814 169,85.5 C169,83.0147186 171.014719,81 173.5,81 C175.985281,81 178,83.0147186 178,85.5 C178,87.9852814 175.985281,90 173.5,90 Z M109,69 C107.343146,69 106,67.6568542 106,66 C106,64.3431458 107.343146,63 109,63 C110.656854,63 112,64.3431458 112,66 C112,67.6568542 110.656854,69 109,69 Z" id="形状结合" fill="#D3F4FF"></path>
        </g>
    </g>
</svg>